<?xml version="1.0" encoding="utf-8"?>
<!-- Generator: Adobe Illustrator 16.0.0, SVG Export Plug-In . SVG Version: 6.00 Build 0)  -->
<!DOCTYPE svg PUBLIC "-//W3C//DTD SVG 1.1//EN" "http://www.w3.org/Graphics/SVG/1.1/DTD/svg11.dtd">
<svg version="1.1" id="Layer_1" xmlns="http://www.w3.org/2000/svg" xmlns:xlink="http://www.w3.org/1999/xlink" x="0px" y="0px"
	 width="75px" height="30px" viewBox="0 0 75 30" enable-background="new 0 0 75 30" xml:space="preserve">
<g>
	<g>
		<path fill="#6D28AA" stroke="#6D28AA" stroke-width="0.5" d="M16.225,26.723C9.9,26.723,6.167,22.55,6.167,16.62V3.575h5.798
			v13.221c0,1.273,0.439,4.305,4.261,4.305c2.548,0,4.393-1.801,4.393-4.305V3.575h5.798V16.62
			C26.416,22.374,22.375,26.723,16.225,26.723z"/>
	</g>
	<g>
		<path fill="#6D28AA" stroke="#6D28AA" stroke-width="0.5" d="M58.774,3.003c6.325,0,10.059,4.173,10.059,10.103v13.089h-5.798
			V12.974c0-1.274-0.439-4.305-4.261-4.305c-2.548,0-4.393,1.757-4.393,4.305v13.221h-5.798V13.105
			C48.584,7.351,52.625,3.003,58.774,3.003z"/>
	</g>
	<ellipse fill="#6D28AA" cx="37.46" cy="15" rx="13.637" ry="13.976"/>
	<g>
		<path fill="#87D200" d="M47.188,18.47c-1.174,4.108-4.735,6.887-9.743,6.887c-5.712,0-10.33-4.695-10.33-10.525
			s4.617-10.604,10.33-10.604c4.852,0,8.921,3.052,9.899,8.452l-14.242,5.987c1.017,1.369,2.543,2.151,4.304,2.151
			c1.683,0,3.404-0.743,4.266-2.348H47.188z M41.396,10.566c-0.939-1.135-2.348-1.8-3.991-1.8c-2.974,0-5.36,2.347-5.478,5.791
			L41.396,10.566z"/>
	</g>
</g>
</svg>

